<svg id="Layer_1" data-name="Layer 1" xmlns="http://www.w3.org/2000/svg" viewBox="0 0 1211.39 430.81"><defs><style>.cls-1{fill:none;stroke-width:5px;}.cls-1,.cls-2{stroke:#0071bc;stroke-linecap:round;stroke-miterlimit:10;}.cls-2{fill:#0071bc;}</style></defs><title>Artboard 1</title><ellipse class="cls-1" cx="192.24" cy="215.4" rx="84.54" ry="212.9"/><ellipse class="cls-2" cx="191.47" cy="210.01" rx="31.84" ry="31.9"/><ellipse class="cls-1" cx="191.9" cy="214.85" rx="84.54" ry="212.9" transform="translate(-90.11 273.61) rotate(-60)"/><ellipse class="cls-1" cx="191.71" cy="214.09" rx="212.9" ry="84.54" transform="translate(-81.36 124.54) rotate(-30)"/><path d="M460.22,278.71h-2.68V227a20.09,20.09,0,0,1,20.1-20h24a17.48,17.48,0,0,0,17.42-17.42v-28a17.33,17.33,0,0,0-17.42-17.42h-24a17.33,17.33,0,0,0-17.42,17.42v46.8h-2.68v-46.8a20.27,20.27,0,0,1,20.1-20.1h24a20.11,20.11,0,0,1,20.1,20.1v28a20.09,20.09,0,0,1-20.1,20.1h-24a17,17,0,0,0-12.35,5.07A16.7,16.7,0,0,0,460.22,227Z"/><path d="M537.93,278.71h-2.77V205.6h2.77Zm1.34-53.59a19.29,19.29,0,0,1,19.43-19.43h16.46v2.68H558.7A16.66,16.66,0,0,0,542,225.12Z"/><path d="M603.87,278.81a19.12,19.12,0,0,1-19.14-19.05V224.83a19.29,19.29,0,0,1,19.14-19.14h19.24a19.12,19.12,0,0,1,19,19.14v34.93a18.95,18.95,0,0,1-19,19.05Zm0-70.44a16.36,16.36,0,0,0-16.46,16.46v34.93a15.74,15.74,0,0,0,4.79,11.58,16.08,16.08,0,0,0,11.67,4.79h19.24a16,16,0,0,0,11.58-4.79,15.77,15.77,0,0,0,4.78-11.58V224.83a16.34,16.34,0,0,0-16.36-16.46Z"/><path d="M654.59,208.37v-2.68h12.64V158.8h2.68v46.89h12.63v2.68H669.91v70.34h-2.68V208.37Z"/><path d="M714.12,278.81A19.12,19.12,0,0,1,695,259.76V224.83a19.29,19.29,0,0,1,19.14-19.14h19.24a19.12,19.12,0,0,1,19,19.14v34.93a18.95,18.95,0,0,1-19,19.05Zm0-70.44a16.36,16.36,0,0,0-16.46,16.46v34.93a15.74,15.74,0,0,0,4.79,11.58,16.08,16.08,0,0,0,11.67,4.79h19.24a16,16,0,0,0,11.58-4.79,15.77,15.77,0,0,0,4.78-11.58V224.83a16.34,16.34,0,0,0-16.36-16.46Z"/><path d="M818.34,278.71V226.17a18,18,0,0,0-17.8-17.8H788.2a17.81,17.81,0,0,0-17.71,17.8v52.54h-2.78V226.17a19.51,19.51,0,0,1,6-14.45,19.72,19.72,0,0,1,14.46-6h12.34a19.72,19.72,0,0,1,14.45,6,19.51,19.51,0,0,1,6,14.45v52.54Z"/><path d="M947.64,278.71V160.52a16.35,16.35,0,0,0-16.37-16.37H905a16.34,16.34,0,0,0-16.36,16.37V278.71h-2.68V160.52a18.95,18.95,0,0,1,19-19.05h26.32a18.95,18.95,0,0,1,19.05,19.05V278.71Z"/><path d="M972.52,272.87a19.52,19.52,0,0,1-5.93-14.35V225.69a20.08,20.08,0,0,1,20.19-20.09l17.61-.1a19.47,19.47,0,0,1,14.26,5.93,20.32,20.32,0,0,1,6.22,14.36l-.1,52.92h-2.68l.1-52.83a18,18,0,0,0-5.36-12.53,17.16,17.16,0,0,0-12.44-5.17l-17.61.09a17,17,0,0,0-12.35,5.08,16.85,16.85,0,0,0-5.16,12.34v32.83A17.46,17.46,0,0,0,986.87,276h30.44v2.68H986.87A19.67,19.67,0,0,1,972.52,272.87Z"/><path d="M1037.31,208.37v-2.68h12.63V158.8h2.68v46.89h12.64v2.68h-12.64v70.34h-2.68V208.37Z"/><path d="M1077.79,199.57V196.5h2.78v3.07Zm0,79.14v-73h2.78v73Z"/><path d="M1113.39,277.37a6.65,6.65,0,0,1-2.48-3.63l-19.81-67.28,2.58-.77L1113.49,273a3.79,3.79,0,0,0,4,3,3.73,3.73,0,0,0,3.92-3l19.81-67.28,2.59.77L1124,273.74a6.91,6.91,0,0,1-2.4,3.63,6.7,6.7,0,0,1-4.11,1.34A6.47,6.47,0,0,1,1113.39,277.37Z"/><path d="M1211.2,278.71h-36.75a19.33,19.33,0,0,1-14.16-5.93,19.11,19.11,0,0,1-5.93-14.17V225.88a20.08,20.08,0,0,1,20.09-20.19h16.85a20.09,20.09,0,0,1,20.09,20.1v.38a16.68,16.68,0,0,1-5.07,12.25,17,17,0,0,1-12.34,5.07h-31.39v-2.68H1194a14.68,14.68,0,0,0,14.73-14.64v-.38a17.31,17.31,0,0,0-17.41-17.42h-16.85A17.48,17.48,0,0,0,1157,225.88l.09,32.73A17.48,17.48,0,0,0,1174.45,276h36.75Z"/></svg>