<svg id="Layer_1" data-title="Layer 1" xmlns="http://www.w3.org/2000/svg" viewBox="0 0 1212 431"><defs><style>.cls-1{fill:none;stroke-width:5px;}.cls-1,.cls-2{stroke:#0071bc;stroke-linecap:round;stroke-miterlimit:10;}.cls-2{fill:#0071bc;}</style></defs><title>Artboard 1</title><ellipse class="cls-1" cx="192" cy="215.5" rx="84.5" ry="213"/><circle class="cls-2" cx="191.5" cy="209.5" r="32"/><ellipse class="cls-1" cx="393.88" cy="216.33" rx="84.41" ry="212.64" transform="translate(-191.71 447.57) rotate(-60.02)"/><ellipse class="cls-1" cx="392.88" cy="215.33" rx="212.64" ry="84.41" transform="translate(-256.41 223.32) rotate(-29.98)"/><path d="M661.38,279.83h-2V227.92a20.21,20.21,0,0,1,20.25-20.09h24.2a17.58,17.58,0,0,0,17.55-17.5V163.19a16.77,16.77,0,0,0-5.17-12.31,17.33,17.33,0,0,0-12.59-5H679.14a17.54,17.54,0,0,0-12.59,5,16.77,16.77,0,0,0-5.17,12.31v46.64h-2V163a20.23,20.23,0,0,1,20-20.13h23.94a20.08,20.08,0,0,1,20,20.13v27.77a19.4,19.4,0,0,1-5.88,14.16,19.67,19.67,0,0,1-14.37,5.94h-24.2a17.21,17.21,0,0,0-12.44,5.07,16.61,16.61,0,0,0-5.11,12.25Z" transform="translate(-201.38 -1.83)"/><path d="M739.38,279.83h-3v-73h3Zm1.9-53a18.85,18.85,0,0,1,19-19h16.1v2H759.67a16.92,16.92,0,0,0-17,17Z" transform="translate(-201.38 -1.83)"/><path d="M805.38,279.83A18.18,18.18,0,0,1,792,274.29a18.44,18.44,0,0,1-5.61-13.48V225.94A18.25,18.25,0,0,1,792,212.46a18,18,0,0,1,13.39-5.63h19.1a19,19,0,0,1,18.9,19.11v34.87a18.62,18.62,0,0,1-5.51,13.48,18.4,18.4,0,0,1-13.39,5.54Zm.44-70a16.36,16.36,0,0,0-16.44,16.52v35A15.88,15.88,0,0,0,794.16,273a16,16,0,0,0,11.66,4.8H825a16.35,16.35,0,0,0,16.34-16.43v-35a16.18,16.18,0,0,0-4.78-11.72,15.93,15.93,0,0,0-11.56-4.8Z" transform="translate(-201.38 -1.83)"/><path d="M856.38,209.83v-3h13v-47h2v47h13v3h-13v70h-2v-70Z" transform="translate(-201.38 -1.83)"/><path d="M915.38,279.83A18.18,18.18,0,0,1,902,274.29a18.44,18.44,0,0,1-5.61-13.48V225.94A18.25,18.25,0,0,1,902,212.46a18,18,0,0,1,13.39-5.63h19.1a19,19,0,0,1,18.9,19.11v34.87a18.62,18.62,0,0,1-5.51,13.48,18.4,18.4,0,0,1-13.39,5.54Zm.44-70a16.36,16.36,0,0,0-16.44,16.52v35A15.88,15.88,0,0,0,904.16,273a16,16,0,0,0,11.66,4.8H935a16.35,16.35,0,0,0,16.34-16.43v-35a16.18,16.18,0,0,0-4.78-11.72,15.93,15.93,0,0,0-11.56-4.8Z" transform="translate(-201.38 -1.83)"/><path d="M1020.38,279.83V227.54a16.74,16.74,0,0,0-5.28-12.47,17,17,0,0,0-12.58-5.24H990.14a17.23,17.23,0,0,0-12.58,5.24,16.91,16.91,0,0,0-5.18,12.47v52.29h-3V227.3a20.52,20.52,0,0,1,20.36-20.47H1002a20.5,20.5,0,0,1,20.36,20.47v52.53Z" transform="translate(-201.38 -1.83)"/><path d="M1149.38,280.83V162.25A16.35,16.35,0,0,0,1133,145.83h-26.3a16.35,16.35,0,0,0-16.35,16.42V280.83h-3V162a18.78,18.78,0,0,1,5.52-13.57,18.35,18.35,0,0,1,13.41-5.58h26.15a18.38,18.38,0,0,1,13.41,5.58,18.81,18.81,0,0,1,5.51,13.57V280.83Z" transform="translate(-201.38 -1.83)"/><path d="M1174.29,274.92a20,20,0,0,1-5.91-14.53V227.17a19.82,19.82,0,0,1,5.91-14.43,19.32,19.32,0,0,1,14.19-5.91l17.52-.1a19.18,19.18,0,0,1,14.19,6,20.71,20.71,0,0,1,6.19,14.52l-.09,53.57h-2.91l.1-53.18A18.14,18.14,0,0,0,1218.1,215a17.18,17.18,0,0,0-12.48-5.2l-17.67.09a17.58,17.58,0,0,0-17.57,17.54v32.48s2.19,9,5.63,12.44a14.5,14.5,0,0,0,12.44,4.45h29.93v3l-29.81,1A19.42,19.42,0,0,1,1174.29,274.92Z" transform="translate(-201.38 -1.83)"/><path d="M1238.38,209.83v-3h13v-47h3v47h13v3h-13v70h-3v-70Z" transform="translate(-201.38 -1.83)"/><path d="M1279.38,200.83v-3h3v3Zm0,79v-73h3v73Z" transform="translate(-201.38 -1.83)"/><path d="M1315,278.8a6.78,6.78,0,0,1-2.49-3.64l-19.81-67.28,2.59-.77,19.81,67.28a3.79,3.79,0,0,0,4,3,3.73,3.73,0,0,0,3.92-3l19.81-67.28,2.59.77-19.81,67.28a7,7,0,0,1-2.4,3.64,6.76,6.76,0,0,1-4.11,1.33A6.52,6.52,0,0,1,1315,278.8Z" transform="translate(-201.38 -1.83)"/><path d="M1412.38,279.83h-35.92a20.25,20.25,0,0,1-20.08-20.09V227a20.08,20.08,0,0,1,20.08-20.18h16.84a19.27,19.27,0,0,1,14.15,5.83,19.47,19.47,0,0,1,5.93,14.26v.67s-2.1,8.87-5.48,12.25a16.55,16.55,0,0,1-12.35,5h-31.17v-3h31.17a14.46,14.46,0,0,0,10.5-4.25,13.76,13.76,0,0,0,4.33-10.2V227a16.62,16.62,0,0,0-5.1-12.18,17.33,17.33,0,0,0-12.43-5h-16.94a17.17,17.17,0,0,0-12.43,5.09,16.43,16.43,0,0,0-5.1,12.18V260s2,8.87,5.4,12.25,7.47,5.17,12.25,4.54h36.35Z" transform="translate(-201.38 -1.83)"/></svg>