<?xml version="1.0" encoding="utf-8"?>
<!-- Generator: Adobe Illustrator 22.0.1, SVG Export Plug-In . SVG Version: 6.00 Build 0)  -->
<svg version="1.1" id="Livello_1" xmlns="http://www.w3.org/2000/svg" xmlns:xlink="http://www.w3.org/1999/xlink" x="0px" y="0px"
	 viewBox="0 0 123.8 35.6" style="enable-background:new 0 0 123.8 35.6;" xml:space="preserve">
<style type="text/css">
	.st0{fill:#5B86CC;}
</style>
<title>logo_black</title>
<g id="f68903d2-52c8-41a2-8258-6a2218b05e71">
	<g id="_x36_980b4dd-92d7-411f-99e8-4011111f4fb9">
		<circle class="st0" cx="6.1" cy="6.1" r="6.1"/>
		<circle class="st0" cx="29.2" cy="6.1" r="6.1"/>
		<circle class="st0" cx="6.1" cy="29.5" r="6.1"/>
		<circle class="st0" cx="29.2" cy="29.5" r="6.1"/>
		<rect x="1.2" y="16.5" transform="matrix(0.7026 -0.7115 0.7115 0.7026 -7.4098 17.8577)" class="st0" width="33" height="2.5"/>
		<path class="st0" d="M53.8,2.6C54.3,2.9,54.7,3.4,55,4c0.6,1.2,0.6,2.6,0,3.8c-0.3,0.6-0.7,1-1.2,1.4c-0.5,0.3-1.1,0.5-1.7,0.5h-3
			v3.2c0,0.3-0.1,0.5-0.3,0.8c-0.2,0.2-0.5,0.3-0.7,0.3c-0.3,0-0.5-0.1-0.7-0.3c-0.2-0.2-0.3-0.5-0.3-0.7V3.1c0-0.3,0.1-0.5,0.3-0.7
			C47.6,2.1,47.9,2,48.2,2h3.9C52.7,2,53.3,2.2,53.8,2.6z M52.8,7.5C53,7.3,53.2,7,53.3,6.8c0.3-0.6,0.3-1.2,0-1.8
			c-0.1-0.3-0.3-0.5-0.5-0.7C52.6,4.1,52.4,4,52.1,4h-3v3.8h3C52.4,7.7,52.6,7.6,52.8,7.5L52.8,7.5z"/>
		<path class="st0" d="M48.2,14.3c-0.4,0-0.7-0.1-1-0.4c-0.2-0.3-0.4-0.6-0.4-1V3.1c0-0.4,0.1-0.7,0.4-1c0.3-0.3,0.6-0.4,1-0.4h3.9
			c0.7,0,1.3,0.2,1.9,0.6c0.6,0.4,1.1,0.9,1.4,1.5c0.3,0.6,0.5,1.4,0.5,2.1c0,0.7-0.2,1.5-0.5,2.1C55,8.6,54.6,9.1,54,9.5
			c-0.5,0.4-1.2,0.6-1.8,0.6h-2.6v2.8c0,0.4-0.1,0.7-0.4,1C48.9,14.2,48.6,14.3,48.2,14.3z M48.2,2.4c-0.2,0-0.3,0.1-0.5,0.2
			c-0.1,0.1-0.2,0.3-0.2,0.5v9.8c0,0.2,0.1,0.4,0.2,0.5c0.2,0.2,0.6,0.2,0.8,0c0,0,0,0,0,0c0.1-0.1,0.2-0.3,0.2-0.5V9.3h3.3
			c0.5,0,1-0.2,1.4-0.5c0.5-0.3,0.9-0.8,1.1-1.3c0.3-0.5,0.4-1.1,0.4-1.7c0-0.6-0.1-1.2-0.4-1.7c-0.3-0.5-0.7-0.9-1.1-1.3
			c-0.4-0.3-0.9-0.5-1.4-0.5H48.2z M52.1,8.1h-3.3V3.6h3.3c0.3,0,0.6,0.2,0.9,0.4c0.3,0.2,0.5,0.5,0.6,0.8c0.3,0.7,0.3,1.5,0,2.1
			c-0.1,0.3-0.3,0.6-0.6,0.8l0,0C52.8,8,52.5,8.1,52.1,8.1z M49.5,7.4h2.6c0.1,0,0.3-0.1,0.4-0.2c0.2-0.2,0.3-0.4,0.4-0.6
			c0.2-0.5,0.2-1,0-1.5c-0.1-0.2-0.2-0.4-0.4-0.6c-0.1-0.1-0.2-0.2-0.4-0.2h-2.6V7.4z"/>
		<path class="st0" d="M68.9,12.6c0.1,0.1,0.1,0.3,0.1,0.5c0,0.2-0.1,0.4-0.2,0.6C68.6,13.9,68.3,14,68,14c-0.3,0-0.5-0.1-0.8-0.2
			C66.4,13.4,66,12.4,66,11c0-0.4-0.1-0.7-0.4-1c-0.3-0.3-0.7-0.4-1.2-0.4h-3.1v3.3c0,0.3-0.1,0.5-0.2,0.8c-0.2,0.2-0.4,0.3-0.7,0.3
			c-0.3,0-0.6-0.1-0.9-0.3c-0.2-0.2-0.4-0.5-0.4-0.7V3.1c0-0.3,0.1-0.5,0.3-0.7C59.7,2.1,60,2,60.2,2h4.9c0.6,0,1.2,0.2,1.7,0.5
			c0.5,0.3,1,0.8,1.2,1.3c0.3,0.6,0.5,1.2,0.5,1.9c0,0.6-0.2,1.2-0.5,1.7c-0.3,0.5-0.7,1-1.2,1.3c0.7,0.4,1.1,1.2,1.2,2
			c0,0.2,0,0.4,0,0.5c0,0.3,0.1,0.5,0.1,0.8c0,0.2,0.2,0.3,0.3,0.3C68.7,12.4,68.8,12.5,68.9,12.6z M65.7,7.6
			c0.2-0.2,0.4-0.5,0.5-0.8c0.1-0.3,0.2-0.7,0.2-1c0-0.3-0.1-0.6-0.2-0.9c-0.1-0.2-0.3-0.5-0.5-0.6C65.5,4.1,65.3,4,65.1,4h-3.7v3.8
			h3.7C65.3,7.8,65.5,7.7,65.7,7.6z"/>
		<path class="st0" d="M68,14.3c-0.3,0-0.6-0.1-0.9-0.2c-0.9-0.5-1.4-1.6-1.4-3.2c0-0.3-0.1-0.5-0.3-0.7C65.1,10,64.8,10,64.5,10
			h-2.8v2.9c0,0.4-0.1,0.7-0.3,1c-0.6,0.5-1.4,0.5-2,0c-0.3-0.2-0.5-0.6-0.5-1V3.1c0-0.4,0.1-0.7,0.4-1c0.3-0.3,0.6-0.4,1-0.4h4.9
			c0.7,0,1.3,0.2,1.8,0.5c0.6,0.3,1.1,0.8,1.4,1.4c0.3,0.6,0.5,1.3,0.5,2c0,0.7-0.2,1.3-0.5,1.8c-0.2,0.4-0.5,0.8-0.9,1.1
			c0.6,0.5,0.9,1.2,0.9,2c0,0.2,0,0.4,0,0.6c0,0.2,0.1,0.4,0.1,0.6c0,0,0,0.1,0.1,0.1c0.2,0.1,0.4,0.3,0.5,0.5l0,0
			c0.3,0.5,0.2,1-0.1,1.4C68.8,14.2,68.4,14.4,68,14.3z M61,9.2h3.6c0.5,0,1,0.1,1.4,0.4c0.3,0.3,0.5,0.8,0.5,1.2
			c0,1.3,0.3,2.1,1,2.5c0.2,0.1,0.4,0.1,0.6,0.1c0.3,0,0.5-0.1,0.5-0.2c0.1-0.1,0.1-0.2,0.1-0.3c0-0.1,0-0.2-0.1-0.3
			c-0.1-0.1-0.1-0.2-0.2-0.2c-0.2-0.1-0.4-0.3-0.5-0.6c-0.1-0.3-0.1-0.5-0.2-0.8c0-0.2,0-0.3,0-0.5c0-0.7-0.4-1.4-1-1.8l-0.5-0.3
			l0.5-0.3c0.4-0.3,0.8-0.7,1.1-1.2c0.3-0.4,0.4-1,0.4-1.5c0-0.6-0.2-1.2-0.5-1.7c-0.3-0.5-0.7-0.9-1.1-1.2
			c-0.4-0.3-0.9-0.4-1.5-0.4h-4.9c-0.2,0-0.3,0.1-0.5,0.2c-0.1,0.1-0.2,0.3-0.2,0.5v9.8c0,0.2,0.1,0.3,0.2,0.4
			c0.3,0.2,0.8,0.3,1,0.1c0.1-0.1,0.2-0.3,0.2-0.5V9.2z M65.1,8.2H61V3.6h4.1c0.3,0,0.6,0.1,0.8,0.3c0.2,0.2,0.4,0.5,0.6,0.8
			c0.1,0.3,0.2,0.7,0.2,1c0,0.4-0.1,0.8-0.2,1.2c-0.1,0.3-0.3,0.6-0.6,0.9l0,0C65.7,8.1,65.4,8.2,65.1,8.2L65.1,8.2z M61.7,7.5h3.3
			c0.1,0,0.2-0.1,0.3-0.2l0,0c0.2-0.2,0.3-0.4,0.4-0.6C65.9,6.4,66,6.1,66,5.8c0-0.3-0.1-0.5-0.2-0.8c-0.1-0.2-0.2-0.4-0.4-0.5
			c-0.1-0.1-0.2-0.1-0.4-0.2h-3.3L61.7,7.5z"/>
		<path class="st0" d="M82.7,11.1c-0.5,0.9-1.2,1.7-2.1,2.2c-0.9,0.6-1.9,0.8-3,0.8c-1.1,0-2.1-0.3-3-0.8c-0.9-0.5-1.6-1.3-2.1-2.2
			c-0.5-1-0.7-2-0.7-3.1c0-1.1,0.2-2.1,0.7-3.1c0.5-0.9,1.2-1.7,2.1-2.2c0.9-0.6,1.9-0.8,3-0.8c1.1,0,2.1,0.3,3,0.8
			c0.8,0.5,1.5,1.3,2,2.2c0.5,1,0.8,2,0.7,3.1C83.4,9.1,83.2,10.1,82.7,11.1z M80.8,5.9c-0.3-0.6-0.7-1.1-1.3-1.5
			c-1.1-0.7-2.6-0.7-3.7,0c-0.5,0.4-1,0.9-1.3,1.5c-0.3,0.6-0.5,1.4-0.5,2.1c0,0.7,0.1,1.4,0.4,2.1c0.3,0.6,0.7,1.1,1.3,1.5
			c1.1,0.7,2.6,0.7,3.7,0c0.5-0.4,1-0.9,1.3-1.5c0.3-0.6,0.5-1.4,0.5-2.1C81.2,7.3,81.1,6.6,80.8,5.9z"/>
		<path class="st0" d="M77.6,14.5c-1.1,0-2.2-0.3-3.2-0.9c-0.9-0.6-1.7-1.4-2.2-2.4c-0.5-1-0.8-2.1-0.8-3.2c0-1.1,0.3-2.3,0.8-3.3
			c0.5-1,1.3-1.8,2.2-2.4c2-1.2,4.4-1.2,6.3,0C81.7,3,82.5,3.8,83,4.7c0.5,1,0.8,2.1,0.8,3.3c0,1.1-0.3,2.2-0.8,3.2l0,0
			c-0.5,1-1.3,1.8-2.2,2.4C79.8,14.2,78.8,14.5,77.6,14.5z M77.6,2.3c-1,0-1.9,0.2-2.8,0.8c-0.8,0.5-1.4,1.2-1.9,2.1
			C72.5,6,72.3,7,72.3,8c0,1,0.3,2,0.7,2.9c0.4,0.9,1.1,1.6,1.9,2.1c1.7,1,3.8,1,5.5,0c0.8-0.5,1.5-1.2,1.9-2.1
			C82.8,10,83.1,9,83.1,8c0-1-0.2-2-0.7-2.9c-0.4-0.9-1.1-1.6-1.9-2.1C79.6,2.5,78.6,2.2,77.6,2.3z M77.6,12.4c-0.7,0-1.4-0.2-2-0.6
			c-0.6-0.4-1.1-1-1.4-1.6c-0.3-0.7-0.5-1.5-0.5-2.2c0-0.8,0.2-1.5,0.5-2.2c0.3-0.7,0.8-1.2,1.4-1.6c1.3-0.8,2.8-0.8,4.1,0
			c0.6,0.4,1.1,1,1.4,1.6l0,0c0.3,0.7,0.5,1.5,0.5,2.2c0,0.8-0.2,1.5-0.5,2.2c-0.3,0.7-0.8,1.2-1.4,1.6
			C79.1,12.2,78.4,12.5,77.6,12.4z M77.6,4.3c-0.6,0-1.2,0.1-1.6,0.5c-0.5,0.3-0.9,0.8-1.1,1.3c-0.3,0.6-0.4,1.3-0.4,1.9
			c0,0.7,0.1,1.3,0.4,1.9c0.2,0.5,0.6,1,1.1,1.3c1,0.6,2.3,0.6,3.3,0c0.5-0.3,0.9-0.8,1.2-1.3c0.3-0.6,0.4-1.2,0.4-1.9
			c0-0.7-0.1-1.3-0.4-1.9l0,0c-0.3-0.5-0.7-1-1.2-1.3C78.8,4.5,78.2,4.3,77.6,4.3z"/>
		<path class="st0" d="M95.4,2.3c0.2,0.2,0.3,0.5,0.3,0.7c0,0.3-0.1,0.5-0.3,0.7C95.2,3.9,94.9,4,94.6,4h-2.7v8.9
			c0,0.3-0.1,0.5-0.3,0.7c-0.2,0.2-0.5,0.3-0.8,0.3c-0.3,0-0.6-0.1-0.8-0.3c-0.2-0.2-0.3-0.5-0.3-0.7V4h-2.7c-0.3,0-0.5-0.1-0.8-0.3
			C86.1,3.5,86,3.3,86,3c0-0.3,0.1-0.5,0.3-0.7C86.5,2.1,86.8,2,87.1,2h7.6C94.9,2,95.2,2.1,95.4,2.3z"/>
		<path class="st0" d="M90.8,14.3c-0.4,0-0.7-0.2-1-0.4c-0.3-0.3-0.4-0.6-0.4-1V4.4h-2.3c-0.4,0-0.7-0.1-1-0.4
			c-0.3-0.3-0.4-0.6-0.4-1c0-0.4,0.1-0.7,0.4-1c0.3-0.2,0.6-0.4,1-0.4h7.6c0.4,0,0.7,0.1,1,0.4C95.9,2.3,96,2.6,96,3
			c0,0.4-0.1,0.7-0.4,1c-0.3,0.2-0.6,0.4-1,0.4h-2.3v8.5c0,0.4-0.2,0.7-0.4,1C91.6,14.2,91.2,14.3,90.8,14.3z M87.1,2.4
			c-0.2,0-0.4,0-0.5,0.2c-0.1,0.1-0.2,0.3-0.2,0.4c0,0.2,0.1,0.3,0.2,0.4c0.1,0.1,0.3,0.2,0.5,0.2h3v9.3c0,0.2,0.1,0.3,0.2,0.5
			c0.3,0.3,0.8,0.3,1.1,0c0.1-0.1,0.2-0.3,0.2-0.5V3.6h3c0.2,0,0.4,0,0.5-0.2c0.2-0.1,0.3-0.3,0.3-0.4c0-0.2,0-0.3-0.2-0.4
			c-0.1-0.1-0.3-0.2-0.5-0.2L87.1,2.4z"/>
		<path class="st0" d="M109,11.1c-0.5,0.9-1.1,1.7-2,2.2c-1.8,1.1-4.1,1.1-5.9,0c-0.9-0.5-1.6-1.3-2.1-2.2c-0.5-0.9-0.8-2-0.8-3.1
			c0-1.1,0.2-2.1,0.8-3.1c0.5-0.9,1.1-1.7,2-2.2c1.8-1.1,4.1-1.1,5.9,0c0.9,0.5,1.6,1.3,2.1,2.2c0.5,1,0.8,2,0.8,3.1
			C109.8,9.1,109.5,10.1,109,11.1z M107.1,5.9c-0.3-0.6-0.7-1.1-1.3-1.5c-0.5-0.4-1.2-0.5-1.8-0.5c-0.7,0-1.3,0.2-1.8,0.5
			c-0.5,0.4-1,0.9-1.3,1.5c-0.3,0.7-0.5,1.4-0.4,2.1c0,0.7,0.1,1.4,0.4,2.1c0.3,0.6,0.7,1.1,1.3,1.5c0.5,0.4,1.2,0.6,1.8,0.5
			c0.7,0,1.3-0.2,1.8-0.5c0.5-0.4,1-0.9,1.3-1.5c0.3-0.6,0.5-1.4,0.5-2.1C107.6,7.3,107.4,6.6,107.1,5.9L107.1,5.9z"/>
		<path class="st0" d="M104,14.5c-1.1,0-2.2-0.3-3.2-0.9c-0.9-0.6-1.7-1.4-2.2-2.4c-0.5-1-0.8-2.1-0.8-3.2c0-1.1,0.3-2.3,0.8-3.3
			c0.5-1,1.3-1.8,2.2-2.4c1.9-1.2,4.4-1.2,6.3,0c0.9,0.6,1.7,1.4,2.2,2.4c0.5,1,0.8,2.1,0.8,3.3c0,1.1-0.3,2.3-0.8,3.3l0,0
			c-0.5,1-1.3,1.8-2.2,2.4C106.2,14.2,105.1,14.5,104,14.5z M104,2.3c-1,0-1.9,0.2-2.8,0.8c-0.8,0.5-1.5,1.2-1.9,2.1
			C98.8,6,98.6,7,98.6,8c0,1,0.2,2,0.7,2.9c0.4,0.9,1.1,1.6,1.9,2.1c1.7,1,3.8,1,5.5,0c0.8-0.5,1.5-1.2,1.9-2.1
			c0.5-0.9,0.7-1.9,0.7-2.9c0-1-0.2-2-0.7-2.9c-0.4-0.9-1.1-1.6-1.9-2.1C105.9,2.5,105,2.2,104,2.3z M104,12.4
			c-0.7,0-1.4-0.2-2.1-0.6c-0.6-0.4-1.1-1-1.4-1.6c-0.3-0.7-0.5-1.5-0.5-2.2c0-0.8,0.2-1.5,0.5-2.2c0.3-0.7,0.8-1.2,1.4-1.6
			c1.2-0.8,2.8-0.8,4.1,0c0.6,0.4,1.1,1,1.4,1.6l0,0c0.3,0.7,0.5,1.5,0.5,2.3c0,0.8-0.2,1.5-0.5,2.2c-0.3,0.7-0.8,1.2-1.4,1.6
			C105.5,12.3,104.7,12.5,104,12.4z M104,4.3c-0.6,0-1.2,0.2-1.6,0.5c-0.5,0.3-0.9,0.8-1.1,1.3c-0.3,0.6-0.4,1.3-0.4,1.9
			c0,0.7,0.1,1.3,0.4,1.9c0.2,0.5,0.6,1,1.1,1.3c1,0.6,2.3,0.6,3.3,0c0.5-0.3,0.9-0.8,1.2-1.3c0.6-1.2,0.6-2.6,0-3.8l0,0
			c-0.3-0.5-0.7-1-1.2-1.3C105.2,4.5,104.6,4.3,104,4.3z"/>
		<path class="st0" d="M123.2,2.3c0.2,0.2,0.3,0.4,0.2,0.7v9.9c0,0.3-0.1,0.5-0.3,0.7c-0.2,0.2-0.5,0.3-0.7,0.3
			c-0.2,0-0.3,0-0.5-0.1c-0.1,0-0.2-0.1-0.3-0.2l-6.2-7.9V13c0,0.3-0.1,0.5-0.3,0.7c-0.2,0.2-0.4,0.3-0.7,0.3
			c-0.2,0-0.5-0.1-0.7-0.3c-0.2-0.2-0.3-0.4-0.2-0.7V3.1c0-0.3,0.1-0.5,0.3-0.7c0.2-0.2,0.5-0.3,0.7-0.3c0.2,0,0.3,0,0.5,0.1
			c0.1,0.1,0.3,0.1,0.4,0.3l6.2,7.9V3c0-0.3,0.1-0.5,0.3-0.7c0.2-0.2,0.4-0.3,0.7-0.3C122.8,2,123,2.1,123.2,2.3z"/>
		<path class="st0" d="M122.4,14.3c-0.2,0-0.4,0-0.6-0.1c-0.2-0.1-0.4-0.2-0.5-0.3l-5.6-7.1V13c0,0.4-0.1,0.7-0.4,0.9
			c-0.5,0.5-1.4,0.5-1.9,0c-0.2-0.3-0.4-0.6-0.4-0.9V3.1c0-0.4,0.1-0.7,0.4-1c0.4-0.4,1.1-0.5,1.7-0.3c0.2,0.1,0.4,0.2,0.5,0.4
			l5.5,7V3c0-0.3,0.1-0.7,0.4-0.9c0.5-0.5,1.4-0.5,1.9,0c0.2,0.2,0.4,0.6,0.4,0.9v9.9C123.8,13.7,123.2,14.3,122.4,14.3
			C122.4,14.3,122.4,14.3,122.4,14.3z M115,4.7l6.9,8.8c0,0,0.1,0.1,0.2,0.1c0.3,0.1,0.6,0.1,0.8-0.1c0.1-0.1,0.2-0.3,0.2-0.5V3
			c0-0.2,0-0.3-0.2-0.4c-0.2-0.2-0.6-0.2-0.8,0C122,2.7,122,2.8,122,3v8.4l-6.8-8.7c-0.1-0.1-0.1-0.1-0.2-0.2
			c-0.3-0.1-0.6-0.1-0.8,0.1c-0.1,0.1-0.2,0.3-0.2,0.5V13c0,0.2,0,0.3,0.2,0.4c0.2,0.2,0.6,0.2,0.8,0c0.1-0.1,0.1-0.3,0.1-0.4V4.7z"
			/>
		<path class="st0" d="M56.9,22.7c0.2,0.2,0.3,0.4,0.3,0.7v9.9c0,0.6-0.4,1-1,1c-0.2,0-0.3,0-0.5-0.1c-0.1,0-0.2-0.1-0.3-0.2
			l-6.2-7.9v7.3c0,0.3-0.1,0.5-0.3,0.7c-0.2,0.2-0.4,0.3-0.7,0.3c-0.2,0-0.5-0.1-0.7-0.3c-0.2-0.2-0.3-0.4-0.3-0.7v-9.9
			c0-0.3,0.1-0.5,0.3-0.7c0.2-0.2,0.5-0.3,0.7-0.3c0.2,0,0.3,0,0.5,0.1c0.1,0.1,0.3,0.1,0.4,0.3l6.2,7.9v-7.3c0-0.3,0.1-0.5,0.3-0.7
			c0.2-0.2,0.4-0.3,0.7-0.3C56.5,22.4,56.7,22.5,56.9,22.7z"/>
		<path class="st0" d="M56.1,34.7c-0.2,0-0.4,0-0.6-0.1c-0.2-0.1-0.4-0.2-0.5-0.3l-5.6-7.1v6.2c0,0.3-0.1,0.7-0.4,0.9
			c-0.5,0.5-1.4,0.5-1.9,0c-0.2-0.2-0.4-0.6-0.4-0.9v-9.9c0-0.4,0.1-0.7,0.4-1c0.4-0.4,1.1-0.5,1.7-0.3c0.2,0.1,0.4,0.2,0.5,0.4
			l5.5,7v-6.2c0-0.4,0.1-0.7,0.4-0.9c0.5-0.5,1.3-0.5,1.8,0c0.3,0.3,0.4,0.6,0.4,1v9.9C57.6,34.1,57,34.7,56.1,34.7
			C56.2,34.7,56.1,34.7,56.1,34.7z M48.7,25.1l6.9,8.8c0,0,0.1,0.1,0.2,0.1c0.3,0.1,0.6,0.1,0.8-0.1c0.1-0.1,0.2-0.3,0.2-0.5v-9.9
			c0-0.2,0-0.3-0.2-0.4c-0.2-0.2-0.6-0.2-0.8,0c-0.1,0.1-0.2,0.3-0.2,0.4v8.4l-6.9-8.7c-0.1-0.1-0.1-0.1-0.2-0.2
			c-0.3-0.1-0.6-0.1-0.8,0.1c-0.1,0.1-0.2,0.3-0.2,0.5v9.9c0,0.3,0.2,0.6,0.5,0.6c0.2,0,0.4-0.1,0.5-0.2c0.1-0.1,0.2-0.3,0.2-0.4
			L48.7,25.1z"/>
		<path class="st0" d="M70.9,33.4c0,0.3-0.1,0.5-0.3,0.7c-0.2,0.2-0.4,0.3-0.7,0.3c-0.2,0-0.4-0.1-0.6-0.2c-0.2-0.1-0.3-0.3-0.4-0.5
			l-0.9-2.1H63l-0.9,2.1c-0.1,0.2-0.2,0.4-0.4,0.5c-0.2,0.1-0.3,0.2-0.5,0.2c-0.3,0-0.5-0.1-0.7-0.2c-0.2-0.2-0.2-0.4-0.2-0.7
			c0-0.1,0-0.2,0.1-0.3l4.2-10.2c0.1-0.2,0.2-0.4,0.4-0.5c0.2-0.1,0.4-0.2,0.6-0.2c0.2,0,0.4,0.1,0.6,0.2c0.2,0.1,0.3,0.3,0.4,0.5
			l4.2,10C70.8,33.2,70.9,33.3,70.9,33.4z M63.9,29.7h3.4l-1.7-4L63.9,29.7z"/>
		<path class="st0" d="M69.9,34.8c-0.3,0-0.6-0.1-0.8-0.3c-0.2-0.2-0.4-0.4-0.5-0.7l-0.8-1.8h-4.6l-0.8,1.8
			c-0.1,0.3-0.3,0.5-0.5,0.7c-0.5,0.4-1.2,0.3-1.7-0.1c-0.2-0.2-0.3-0.6-0.3-0.9c0-0.1,0-0.3,0.1-0.4l4.2-10.2
			c0.1-0.3,0.3-0.5,0.5-0.7c0.3-0.2,0.6-0.3,0.9-0.2c0.3,0,0.5,0.1,0.7,0.2c0.2,0.2,0.4,0.4,0.5,0.7l4.2,9.9
			c0.1,0.2,0.1,0.4,0.1,0.5c0,0.4-0.1,0.7-0.4,1C70.6,34.7,70.3,34.8,69.9,34.8z M62.8,31.3h5.6l1,2.3c0.1,0.1,0.1,0.3,0.3,0.4
			c0.2,0.2,0.5,0.1,0.7-0.1c0.1-0.1,0.2-0.3,0.2-0.5c0-0.1,0-0.2-0.1-0.3l-4.2-9.9c0-0.1-0.1-0.3-0.2-0.3c-0.1-0.1-0.2-0.1-0.4-0.1
			c-0.1,0-0.3,0-0.4,0.1C65.1,22.9,65,23,65,23.2l-4.2,10.2c0,0.1,0,0.1,0,0.2c0,0.1,0,0.3,0.1,0.4c0.2,0.2,0.5,0.2,0.7,0
			c0.1-0.1,0.2-0.2,0.2-0.3L62.8,31.3z M67.8,30.1h-4.5l2.2-5.3L67.8,30.1z M64.4,29.3h2.3l-1.1-2.6L64.4,29.3z"/>
		<path class="st0" d="M81.8,22.7c0.2,0.2,0.3,0.5,0.3,0.7c0,0.3-0.1,0.5-0.3,0.7c-0.2,0.2-0.5,0.3-0.8,0.3h-2.7v8.9
			c0,0.3-0.1,0.6-0.3,0.7c-0.2,0.2-0.5,0.3-0.8,0.3c-0.3,0-0.6-0.1-0.8-0.3c-0.2-0.2-0.3-0.5-0.3-0.7v-8.9h-2.7
			c-0.3,0-0.5-0.1-0.8-0.3c-0.4-0.4-0.4-1,0-1.4c0.2-0.2,0.5-0.3,0.7-0.3H81C81.3,22.4,81.6,22.5,81.8,22.7z"/>
		<path class="st0" d="M77.2,34.7c-0.4,0-0.7-0.1-1-0.4c-0.3-0.3-0.4-0.6-0.4-1v-8.5h-2.3c-0.4,0-0.7-0.1-1-0.4
			c-0.3-0.3-0.4-0.6-0.4-1c0-0.4,0.1-0.7,0.4-1c0.3-0.2,0.6-0.4,1-0.4H81c0.4,0,0.7,0.1,1,0.4l0,0c0.3,0.3,0.4,0.6,0.4,1
			c0,0.4-0.1,0.7-0.4,1c-0.3,0.2-0.6,0.4-1,0.4h-2.2v8.5c0,0.4-0.2,0.7-0.4,1C78,34.6,77.6,34.7,77.2,34.7z M73.5,22.8
			c-0.2,0-0.4,0.1-0.5,0.2c-0.1,0.1-0.2,0.3-0.2,0.4c0,0.2,0.1,0.3,0.2,0.4c0.1,0.1,0.3,0.2,0.5,0.2h3.1v9.3c0,0.2,0.1,0.3,0.2,0.5
			c0.3,0.3,0.8,0.3,1.1,0c0.1-0.1,0.2-0.3,0.2-0.5V24h3c0.2,0,0.4,0,0.5-0.2c0.1-0.1,0.2-0.3,0.2-0.4c0-0.2,0-0.3-0.2-0.4l0,0
			c-0.1-0.1-0.3-0.2-0.5-0.2L73.5,22.8z"/>
		<path class="st0" d="M87.4,34c-0.2,0.2-0.5,0.3-0.8,0.3c-0.6,0-1-0.4-1-1v-9.8c0-0.3,0.1-0.5,0.3-0.7c0.2-0.2,0.5-0.3,0.8-0.3
			c0.3,0,0.5,0.1,0.7,0.3c0.2,0.2,0.3,0.5,0.3,0.7v9.8C87.8,33.6,87.6,33.8,87.4,34z"/>
		<path class="st0" d="M86.7,34.7c-0.8,0-1.4-0.6-1.4-1.4c0,0,0,0,0-0.1v-9.8c0-0.4,0.1-0.7,0.4-1c0.6-0.5,1.4-0.5,2,0
			c0.3,0.3,0.4,0.6,0.4,1v9.8c0,0.4-0.2,0.7-0.4,1l0,0C87.4,34.6,87,34.7,86.7,34.7z M86.7,22.8c-0.2,0-0.4,0.1-0.5,0.2
			C86,23.1,86,23.3,86,23.5v9.8c0,0.2,0.1,0.4,0.2,0.5c0.3,0.3,0.7,0.3,1,0c0.1-0.1,0.2-0.3,0.2-0.5v-9.8c0-0.2-0.1-0.4-0.2-0.5
			C87,22.9,86.9,22.8,86.7,22.8L86.7,22.8z"/>
		<path class="st0" d="M101.5,22.7c0.2,0.2,0.3,0.4,0.3,0.7c0,0.2,0,0.3-0.1,0.5l-4.2,9.8c-0.2,0.4-0.6,0.7-1,0.7
			c-0.2,0-0.4-0.1-0.5-0.2c-0.2-0.1-0.3-0.3-0.4-0.5l-4.2-9.9c-0.1-0.1-0.1-0.3-0.1-0.4c0-0.3,0.1-0.6,0.3-0.7
			c0.2-0.2,0.4-0.3,0.7-0.3c0.2,0,0.4,0.1,0.6,0.2c0.2,0.1,0.3,0.3,0.4,0.5l3.4,8l3.1-8c0.1-0.2,0.2-0.4,0.4-0.5
			c0.2-0.1,0.3-0.2,0.5-0.2C101,22.4,101.3,22.5,101.5,22.7z"/>
		<path class="st0" d="M96.5,34.7c-0.3,0-0.5-0.1-0.7-0.2c-0.2-0.2-0.4-0.4-0.5-0.6L91,24c-0.1-0.2-0.1-0.4-0.1-0.6
			c0-0.4,0.2-0.8,0.5-1c0.5-0.4,1.2-0.5,1.7-0.1c0.2,0.2,0.4,0.4,0.5,0.7l3.1,7.2l2.8-7.2c0.1-0.3,0.3-0.5,0.5-0.7
			c0.5-0.4,1.3-0.3,1.7,0.2l0,0c0.3,0.3,0.5,0.6,0.4,1c0,0.2-0.1,0.4-0.1,0.5l-4.2,9.8c-0.1,0.3-0.3,0.5-0.6,0.7
			C97,34.6,96.7,34.7,96.5,34.7z M92.3,22.7c-0.2,0-0.3,0.1-0.4,0.2c-0.1,0.1-0.2,0.3-0.2,0.5c0,0.1,0,0.2,0,0.3l4.2,9.9
			c0.1,0.2,0.3,0.4,0.6,0.4c0.1,0,0.3,0,0.4-0.1c0.1-0.1,0.2-0.2,0.3-0.3l4.2-9.8c0-0.1,0.1-0.2,0.1-0.3c0-0.2-0.1-0.3-0.2-0.4
			c-0.2-0.2-0.6-0.3-0.8-0.1c-0.1,0.1-0.2,0.2-0.2,0.3l-3.5,8.9l-3.7-8.8c0-0.1-0.1-0.2-0.2-0.3C92.5,22.8,92.4,22.8,92.3,22.7
			L92.3,22.7z"/>
		<path class="st0" d="M112.8,32.7c0.2,0.2,0.3,0.4,0.3,0.7c0,0.3-0.1,0.5-0.3,0.7c-0.2,0.2-0.5,0.3-0.7,0.3h-5.7
			c-0.3,0-0.5-0.1-0.7-0.3c-0.2-0.2-0.3-0.5-0.3-0.7v-9.8c0-0.3,0.1-0.5,0.3-0.7c0.2-0.2,0.5-0.3,0.7-0.3h5.7c0.3,0,0.5,0.1,0.7,0.3
			c0.2,0.2,0.3,0.4,0.3,0.7c0,0.3-0.1,0.5-0.3,0.7c-0.2,0.2-0.5,0.3-0.8,0.3h-4.6v2.9h3.8c0.3,0,0.5,0.1,0.7,0.3
			c0.2,0.2,0.3,0.5,0.3,0.7c0,0.3-0.1,0.5-0.3,0.7c-0.2,0.2-0.5,0.3-0.7,0.3h-3.8v3.1h4.6C112.3,32.4,112.6,32.5,112.8,32.7z"/>
		<path class="st0" d="M112.1,34.7h-5.7c-0.8,0-1.4-0.6-1.4-1.4c0,0,0,0,0,0v-9.8c0-0.8,0.6-1.4,1.3-1.4c0,0,0,0,0.1,0h5.7
			c0.4,0,0.7,0.1,1,0.4c0.3,0.3,0.4,0.6,0.4,1c0,0.4-0.1,0.7-0.4,1c-0.3,0.2-0.6,0.4-1,0.4h-4.2V27h3.5c0.4,0,0.7,0.1,1,0.4
			c0.3,0.3,0.4,0.6,0.4,1c0,0.4-0.1,0.7-0.4,1c-0.3,0.2-0.6,0.4-1,0.4h-3.5V32h4.2c0.4,0,0.7,0.1,1,0.4l0,0c0.3,0.2,0.4,0.6,0.4,1
			c0,0.4-0.1,0.7-0.4,1C112.8,34.6,112.4,34.7,112.1,34.7z M106.4,22.8c-0.2,0-0.4,0.1-0.5,0.2c-0.1,0.1-0.2,0.3-0.2,0.5v9.8
			c0,0.4,0.3,0.7,0.6,0.7c0,0,0,0,0,0h5.7c0.2,0,0.4-0.1,0.5-0.2c0.1-0.1,0.2-0.3,0.2-0.4c0-0.2-0.1-0.3-0.2-0.4
			c-0.1-0.1-0.3-0.2-0.5-0.2h-5v-3.9h4.2c0.2,0,0.4-0.1,0.5-0.2c0.1-0.1,0.2-0.3,0.2-0.4c0-0.2-0.1-0.3-0.2-0.5
			c-0.1-0.1-0.3-0.2-0.5-0.2H107V24h5c0.2,0,0.4,0,0.5-0.2c0.1-0.1,0.2-0.3,0.2-0.4c0-0.2-0.1-0.3-0.2-0.5c-0.1-0.1-0.3-0.2-0.5-0.2
			L106.4,22.8z"/>
	</g>
</g>
</svg>
