<?xml version="1.0" encoding="utf-8"?>
<!-- Generator: Adobe Illustrator 22.0.1, SVG Export Plug-In . SVG Version: 6.00 Build 0)  -->
<svg version="1.1" id="Livello_1" xmlns="http://www.w3.org/2000/svg" xmlns:xlink="http://www.w3.org/1999/xlink" x="0px" y="0px"
	 viewBox="0 0 111.4 32.4" style="enable-background:new 0 0 111.4 32.4;" xml:space="preserve">
<style type="text/css">
	.st0{fill:#FFFFFF;}
</style>
<title>logo_white</title>
<g id="bdef26b1-ba29-49e2-9721-3352738e9fca">
	<g id="e485e1b8-bcfa-4499-9b5b-db5082d685cb">
		<circle class="st0" cx="5.5" cy="5.5" r="5.5"/>
		<circle class="st0" cx="26.6" cy="5.5" r="5.5"/>
		<circle class="st0" cx="5.5" cy="26.8" r="5.5"/>
		<circle class="st0" cx="26.6" cy="26.8" r="5.5"/>
		<rect x="1.1" y="15" transform="matrix(0.7026 -0.7115 0.7115 0.7026 -6.7385 16.2111)" class="st0" width="29.9" height="2.3"/>
		<path class="st0" d="M47.6,2c0.5,0.3,0.9,0.8,1.2,1.3c0.3,0.5,0.4,1.1,0.4,1.7c0,0.6-0.1,1.2-0.4,1.8c-0.3,0.5-0.7,0.9-1.2,1.2
			c-0.4,0.3-1,0.5-1.5,0.5h-2.7v2.9c0,0.2-0.1,0.5-0.2,0.7c-0.4,0.4-0.9,0.4-1.3,0c0,0,0,0,0,0c-0.2-0.2-0.3-0.4-0.2-0.7V2.5
			c0-0.5,0.4-0.9,0.9-0.9c0,0,0,0,0.1,0h3.5C46.7,1.5,47.2,1.7,47.6,2z M46.7,6.5c0.2-0.2,0.4-0.4,0.5-0.6c0.1-0.3,0.2-0.6,0.2-0.9
			c0-0.3-0.1-0.6-0.2-0.8c-0.1-0.2-0.3-0.5-0.5-0.6c-0.2-0.1-0.4-0.2-0.6-0.2h-2.7v3.4h2.7C46.4,6.7,46.6,6.6,46.7,6.5z"/>
		<path class="st0" d="M61.4,11.1c0.1,0.1,0.1,0.3,0.1,0.4c0,0.2-0.1,0.4-0.2,0.5c-0.2,0.2-0.4,0.3-0.7,0.3c-0.2,0-0.5-0.1-0.7-0.2
			c-0.8-0.6-1.3-1.6-1.1-2.6c0-0.3-0.1-0.7-0.4-0.9c-0.3-0.2-0.6-0.3-1-0.3h-2.9v3c0,0.2-0.1,0.5-0.2,0.7c-0.1,0.2-0.4,0.3-0.6,0.3
			c-0.3,0-0.6-0.1-0.8-0.3c-0.2-0.2-0.3-0.4-0.3-0.7V2.5c0-0.2,0.1-0.5,0.2-0.7c0.2-0.2,0.4-0.3,0.7-0.3h4.5c0.5,0,1.1,0.2,1.5,0.4
			c0.5,0.3,0.9,0.7,1.1,1.2C60.9,3.7,61,4.3,61,4.9c0,0.5-0.1,1-0.4,1.5c-0.3,0.5-0.6,0.9-1.1,1.2c0.6,0.4,1,1.1,1.1,1.8
			c0,0.2,0,0.3,0,0.5c0,0.2,0.1,0.5,0.1,0.7c0,0.1,0.1,0.3,0.3,0.3C61.1,10.9,61.3,11,61.4,11.1z M58.4,6.6c0.2-0.2,0.3-0.4,0.4-0.7
			c0.1-0.3,0.2-0.7,0.2-1c0-0.3-0.1-0.5-0.2-0.8c-0.1-0.2-0.2-0.4-0.4-0.6c-0.2-0.1-0.3-0.2-0.5-0.2h-3.3v3.5h3.4
			C58.1,6.8,58.3,6.7,58.4,6.6L58.4,6.6z"/>
		<path class="st0" d="M73.9,9.7c-0.4,0.8-1.1,1.5-1.9,2c-1.7,1-3.7,1-5.4,0c-0.8-0.5-1.4-1.2-1.9-2c-0.4-0.9-0.7-1.8-0.7-2.8
			c0-1,0.2-2,0.7-2.8c0.4-0.8,1.1-1.5,1.9-2c1.7-1,3.7-1,5.4,0c0.8,0.5,1.4,1.2,1.9,2C74.3,5,74.6,6,74.6,7
			C74.6,7.9,74.3,8.9,73.9,9.7z M72.1,5.1c-0.3-0.5-0.7-1-1.2-1.3c-0.5-0.3-1.1-0.5-1.7-0.5c-0.6,0-1.2,0.2-1.7,0.5
			c-0.5,0.3-0.9,0.8-1.1,1.3c-0.3,0.6-0.4,1.3-0.4,1.9c0,0.7,0.1,1.3,0.4,1.9c0.3,0.5,0.7,1,1.1,1.3c0.5,0.3,1.1,0.5,1.7,0.5
			c0.6,0,1.2-0.2,1.7-0.5c0.5-0.3,0.9-0.8,1.2-1.3c0.3-0.6,0.4-1.2,0.4-1.9C72.6,6.3,72.4,5.7,72.1,5.1z"/>
		<path class="st0" d="M85.4,1.8c0.2,0.2,0.3,0.4,0.3,0.6c0,0.2-0.1,0.5-0.3,0.6c-0.2,0.2-0.4,0.2-0.7,0.2h-2.4v8.1
			c0,0.3-0.1,0.5-0.3,0.7c-0.2,0.2-0.5,0.3-0.7,0.3c-0.3,0-0.5-0.1-0.7-0.3c-0.2-0.2-0.3-0.4-0.3-0.7V3.3h-2.4
			c-0.2,0-0.5-0.1-0.7-0.2c-0.2-0.2-0.3-0.4-0.3-0.6c0-0.2,0.1-0.5,0.3-0.6c0.2-0.2,0.4-0.2,0.7-0.2h6.8C84.9,1.5,85.2,1.6,85.4,1.8
			z"/>
		<path class="st0" d="M97.8,9.7c-0.4,0.8-1.1,1.5-1.9,2c-1.7,1-3.7,1-5.4,0c-0.8-0.5-1.4-1.2-1.9-2C88.2,8.9,88,7.9,88,7
			c0-1,0.2-2,0.7-2.8c1.3-2.5,4.5-3.5,7-2.1c0.1,0,0.2,0.1,0.2,0.1c0.8,0.5,1.4,1.2,1.9,2C98.3,5,98.5,6,98.5,7
			C98.5,7.9,98.3,8.9,97.8,9.7z M96.1,5.1c-0.3-0.5-0.7-1-1.2-1.3c-0.5-0.3-1.1-0.5-1.7-0.5c-0.6,0-1.2,0.2-1.7,0.5
			c-0.5,0.3-0.9,0.8-1.1,1.3C90.1,5.7,90,6.3,90,7c0,0.7,0.1,1.3,0.4,1.9c0.3,0.5,0.6,1,1.1,1.3c0.5,0.3,1.1,0.5,1.7,0.5
			c0.6,0,1.2-0.2,1.7-0.5c0.5-0.3,0.9-0.8,1.2-1.3c0.3-0.6,0.4-1.2,0.4-1.8C96.5,6.3,96.3,5.7,96.1,5.1z"/>
		<path class="st0" d="M110.6,1.8c0.2,0.2,0.2,0.4,0.2,0.6v9c0,0.3-0.1,0.5-0.3,0.7c-0.2,0.2-0.4,0.3-0.7,0.3c-0.1,0-0.3,0-0.4-0.1
			c-0.1,0-0.2-0.1-0.3-0.2l-5.7-7.2v6.6c0,0.5-0.3,0.8-0.8,0.9c0,0,0,0-0.1,0c-0.2,0-0.4-0.1-0.6-0.2c-0.2-0.2-0.2-0.4-0.2-0.6v-9
			c0-0.3,0.1-0.5,0.3-0.7c0.2-0.2,0.4-0.3,0.7-0.3c0.2,0,0.3,0,0.5,0.1c0.1,0,0.2,0.1,0.3,0.2l5.6,7.2V2.4c0-0.2,0.1-0.5,0.2-0.6
			c0.2-0.2,0.4-0.2,0.6-0.2C110.3,1.5,110.5,1.6,110.6,1.8z"/>
		<path class="st0" d="M50.5,20.3c0.2,0.2,0.2,0.4,0.2,0.6v9c0,0.3-0.1,0.5-0.3,0.7c-0.2,0.2-0.4,0.3-0.6,0.3c-0.1,0-0.3,0-0.4-0.1
			c-0.1,0-0.2-0.1-0.3-0.2l-5.7-7.2V30c0,0.2-0.1,0.5-0.2,0.6c-0.2,0.2-0.4,0.2-0.6,0.2c-0.2,0-0.4-0.1-0.6-0.2
			c-0.2-0.2-0.2-0.4-0.2-0.6v-9c0-0.3,0.1-0.5,0.3-0.7c0.2-0.2,0.4-0.3,0.7-0.3c0.2,0,0.3,0,0.5,0.1c0.1,0,0.2,0.1,0.3,0.2l5.6,7.2
			v-6.7c0-0.2,0.1-0.5,0.2-0.6c0.2-0.2,0.4-0.3,0.6-0.2C50.1,20.1,50.3,20.2,50.5,20.3z"/>
		<path class="st0" d="M63.2,30c0,0.2-0.1,0.5-0.3,0.7c-0.2,0.2-0.4,0.3-0.6,0.2c-0.2,0-0.4-0.1-0.5-0.2c-0.2-0.1-0.3-0.3-0.3-0.5
			l-0.8-1.9H56l-0.8,1.9c-0.1,0.2-0.2,0.3-0.3,0.5c-0.3,0.2-0.8,0.2-1.1,0c-0.1-0.2-0.2-0.4-0.2-0.6c0-0.1,0-0.2,0-0.3l3.8-9.2
			c0.1-0.2,0.2-0.4,0.4-0.5C58,20,58.2,20,58.4,20c0.2,0,0.4,0.1,0.5,0.2c0.2,0.1,0.3,0.3,0.3,0.5l3.8,9
			C63.1,29.8,63.1,29.9,63.2,30z M56.8,26.7h3.1l-1.6-3.6L56.8,26.7z"/>
		<path class="st0" d="M73.1,20.3c0.2,0.2,0.3,0.4,0.3,0.6c0,0.2-0.1,0.5-0.3,0.6c-0.2,0.2-0.4,0.2-0.7,0.2H70v8.1
			c0,0.3-0.1,0.5-0.3,0.7c-0.2,0.2-0.5,0.3-0.7,0.3c-0.3,0-0.5-0.1-0.7-0.3c-0.2-0.2-0.3-0.4-0.3-0.7v-8.1h-2.4
			c-0.2,0-0.5-0.1-0.7-0.2c-0.2-0.2-0.3-0.4-0.3-0.6c0-0.2,0.1-0.5,0.3-0.6c0.2-0.2,0.4-0.3,0.7-0.2h6.9
			C72.6,20.1,72.9,20.1,73.1,20.3z"/>
		<path class="st0" d="M78.2,30.6c-0.2,0.2-0.4,0.3-0.7,0.3c-0.3,0-0.5-0.1-0.7-0.3c-0.2-0.2-0.3-0.4-0.3-0.7v-9
			c0-0.3,0.1-0.5,0.3-0.7c0.2-0.2,0.4-0.3,0.7-0.3c0.2,0,0.5,0.1,0.7,0.3c0.2,0.2,0.3,0.4,0.3,0.7v9C78.5,30.2,78.4,30.4,78.2,30.6z
			"/>
		<path class="st0" d="M90.9,20.3c0.2,0.2,0.3,0.4,0.3,0.6c0,0.1,0,0.3-0.1,0.4l-3.8,9c-0.1,0.2-0.2,0.3-0.4,0.4
			c-0.2,0.1-0.3,0.2-0.5,0.1c-0.2,0-0.3-0.1-0.5-0.2c-0.2-0.1-0.3-0.2-0.3-0.4l-3.8-9c-0.1-0.1-0.1-0.3-0.1-0.4
			c0-0.3,0.1-0.5,0.3-0.7c0.2-0.2,0.4-0.2,0.6-0.2c0.2,0,0.3,0.1,0.5,0.1c0.2,0.1,0.3,0.3,0.4,0.4l3.1,7.3l2.8-7.3
			c0.1-0.2,0.2-0.3,0.4-0.4c0.1-0.1,0.3-0.2,0.5-0.2C90.5,20,90.7,20.1,90.9,20.3z"/>
		<path class="st0" d="M101.2,29.4c0.2,0.2,0.3,0.4,0.3,0.6c0,0.2-0.1,0.5-0.3,0.6c-0.2,0.2-0.4,0.2-0.7,0.2h-5.2
			c-0.3,0-0.5-0.1-0.7-0.3c-0.2-0.2-0.3-0.4-0.3-0.7v-9c0-0.5,0.4-0.9,0.9-0.9c0,0,0,0,0.1,0h5.2c0.2,0,0.5,0.1,0.7,0.3
			c0.2,0.2,0.3,0.4,0.3,0.7c0,0.2-0.1,0.5-0.3,0.6c-0.2,0.2-0.4,0.2-0.7,0.2h-4.2v2.6h3.5c0.2,0,0.5,0.1,0.7,0.2
			c0.2,0.2,0.3,0.4,0.3,0.7c0,0.2-0.1,0.5-0.3,0.6c-0.2,0.2-0.4,0.2-0.7,0.2h-3.5V29h4.2C100.8,29.1,101,29.2,101.2,29.4z"/>
	</g>
</g>
</svg>
